<svg id="visual" viewBox="0 0 900 600" width="900" height="600" xmlns="http://www.w3.org/2000/svg" xmlns:xlink="http://www.w3.org/1999/xlink" version="1.1"><g stroke-width="1" stroke-linejoin="bevel"><path d="M412 292.1L389 235.1L361 312.9Z" fill="#c1cace" stroke="#c1cace"></path><path d="M389 235.1L263 273.1L361 312.9Z" fill="#d2d9dc" stroke="#d2d9dc"></path><path d="M263 273.1L296 340.9L361 312.9Z" fill="#c1cace" stroke="#c1cace"></path><path d="M439 431.6L493 341.9L412 292.1Z" fill="#dae1e4" stroke="#dae1e4"></path><path d="M355 179.4L263 273.1L389 235.1Z" fill="#b9c2c7" stroke="#b9c2c7"></path><path d="M439 431.6L412 292.1L361 312.9Z" fill="#c9d1d5" stroke="#c9d1d5"></path><path d="M526 274.1L463 162.4L389 235.1Z" fill="#c1cace" stroke="#c1cace"></path><path d="M389 235.1L463 162.4L355 179.4Z" fill="#c9d1d5" stroke="#c9d1d5"></path><path d="M526 274.1L389 235.1L412 292.1Z" fill="#c1cace" stroke="#c1cace"></path><path d="M493 341.9L526 274.1L412 292.1Z" fill="#929ca4" stroke="#929ca4"></path><path d="M195 317.9L298 407.6L296 340.9Z" fill="#b1bac0" stroke="#b1bac0"></path><path d="M296 340.9L298 407.6L361 312.9Z" fill="#9aa4ab" stroke="#9aa4ab"></path><path d="M298 407.6L370 432.6L361 312.9Z" fill="#e3e9eb" stroke="#e3e9eb"></path><path d="M370 432.6L439 431.6L361 312.9Z" fill="#a9b3b9" stroke="#a9b3b9"></path><path d="M314 94.7L240 148.4L355 179.4Z" fill="#d2d9dc" stroke="#d2d9dc"></path><path d="M355 179.4L240 148.4L263 273.1Z" fill="#929ca4" stroke="#929ca4"></path><path d="M575 459.6L546 342.9L493 341.9Z" fill="#b9c2c7" stroke="#b9c2c7"></path><path d="M493 341.9L546 342.9L526 274.1Z" fill="#b1bac0" stroke="#b1bac0"></path><path d="M145 262.1L195 317.9L263 273.1Z" fill="#b9c2c7" stroke="#b9c2c7"></path><path d="M263 273.1L195 317.9L296 340.9Z" fill="#c1cace" stroke="#c1cace"></path><path d="M343 77.7L314 94.7L355 179.4Z" fill="#d2d9dc" stroke="#d2d9dc"></path><path d="M463 162.4L343 77.7L355 179.4Z" fill="#b1bac0" stroke="#b1bac0"></path><path d="M580 148.4L489 75.7L463 162.4Z" fill="#d2d9dc" stroke="#d2d9dc"></path><path d="M463 162.4L489 75.7L343 77.7Z" fill="#b9c2c7" stroke="#b9c2c7"></path><path d="M580 148.4L463 162.4L526 274.1Z" fill="#d2d9dc" stroke="#d2d9dc"></path><path d="M240 148.4L145 262.1L263 273.1Z" fill="#b9c2c7" stroke="#b9c2c7"></path><path d="M633 232.1L580 148.4L526 274.1Z" fill="#a1abb2" stroke="#a1abb2"></path><path d="M298 407.6L334 511.3L370 432.6Z" fill="#c1cace" stroke="#c1cace"></path><path d="M370 432.6L411 523.3L439 431.6Z" fill="#d2d9dc" stroke="#d2d9dc"></path><path d="M278 539.3L334 511.3L298 407.6Z" fill="#d2d9dc" stroke="#d2d9dc"></path><path d="M154 431.6L298 407.6L195 317.9Z" fill="#a9b3b9" stroke="#a9b3b9"></path><path d="M334 511.3L411 523.3L370 432.6Z" fill="#a1abb2" stroke="#a1abb2"></path><path d="M439 431.6L575 459.6L493 341.9Z" fill="#9aa4ab" stroke="#9aa4ab"></path><path d="M145 262.1L126 324.9L195 317.9Z" fill="#b1bac0" stroke="#b1bac0"></path><path d="M580 148.4L508 52.7L489 75.7Z" fill="#dae1e4" stroke="#dae1e4"></path><path d="M405 0L350 0L343 77.7Z" fill="#b9c2c7" stroke="#b9c2c7"></path><path d="M546 342.9L633 232.1L526 274.1Z" fill="#9aa4ab" stroke="#9aa4ab"></path><path d="M682 280.1L633 232.1L546 342.9Z" fill="#9aa4ab" stroke="#9aa4ab"></path><path d="M240 148.4L141 156.4L145 262.1Z" fill="#a1abb2" stroke="#a1abb2"></path><path d="M145 262.1L50 266.1L126 324.9Z" fill="#929ca4" stroke="#929ca4"></path><path d="M134 112.7L141 156.4L240 148.4Z" fill="#dae1e4" stroke="#dae1e4"></path><path d="M292 0L240 148.4L314 94.7Z" fill="#a9b3b9" stroke="#a9b3b9"></path><path d="M128 393.6L154 431.6L195 317.9Z" fill="#9aa4ab" stroke="#9aa4ab"></path><path d="M565 515.3L575 459.6L439 431.6Z" fill="#e3e9eb" stroke="#e3e9eb"></path><path d="M126 324.9L128 393.6L195 317.9Z" fill="#c1cace" stroke="#c1cace"></path><path d="M405 0L343 77.7L489 75.7Z" fill="#b9c2c7" stroke="#b9c2c7"></path><path d="M343 77.7L292 0L314 94.7Z" fill="#a9b3b9" stroke="#a9b3b9"></path><path d="M495 0L405 0L489 75.7Z" fill="#d2d9dc" stroke="#d2d9dc"></path><path d="M154 431.6L278 539.3L298 407.6Z" fill="#b1bac0" stroke="#b1bac0"></path><path d="M334 511.3L362 600L411 523.3Z" fill="#c9d1d5" stroke="#c9d1d5"></path><path d="M350 0L292 0L343 77.7Z" fill="#dae1e4" stroke="#dae1e4"></path><path d="M623 432.6L641 379.9L546 342.9Z" fill="#b9c2c7" stroke="#b9c2c7"></path><path d="M739 197.4L636 149.4L633 232.1Z" fill="#b1bac0" stroke="#b1bac0"></path><path d="M633 232.1L636 149.4L580 148.4Z" fill="#d2d9dc" stroke="#d2d9dc"></path><path d="M580 148.4L645 106.7L508 52.7Z" fill="#a9b3b9" stroke="#a9b3b9"></path><path d="M166 0L134 112.7L240 148.4Z" fill="#b9c2c7" stroke="#b9c2c7"></path><path d="M141 156.4L110 155.4L145 262.1Z" fill="#929ca4" stroke="#929ca4"></path><path d="M134 112.7L110 155.4L141 156.4Z" fill="#9aa4ab" stroke="#9aa4ab"></path><path d="M126 324.9L0 316.9L128 393.6Z" fill="#e3e9eb" stroke="#e3e9eb"></path><path d="M575 459.6L623 432.6L546 342.9Z" fill="#c9d1d5" stroke="#c9d1d5"></path><path d="M673 0L495 0L508 52.7Z" fill="#a1abb2" stroke="#a1abb2"></path><path d="M508 52.7L495 0L489 75.7Z" fill="#b9c2c7" stroke="#b9c2c7"></path><path d="M709 312.9L682 280.1L641 379.9Z" fill="#e3e9eb" stroke="#e3e9eb"></path><path d="M641 379.9L682 280.1L546 342.9Z" fill="#d2d9dc" stroke="#d2d9dc"></path><path d="M411 523.3L565 515.3L439 431.6Z" fill="#a1abb2" stroke="#a1abb2"></path><path d="M575 459.6L644 537.3L623 432.6Z" fill="#c1cace" stroke="#c1cace"></path><path d="M525 600L565 515.3L411 523.3Z" fill="#c1cace" stroke="#c1cace"></path><path d="M699 79.7L645 106.7L636 149.4Z" fill="#d2d9dc" stroke="#d2d9dc"></path><path d="M636 149.4L645 106.7L580 148.4Z" fill="#929ca4" stroke="#929ca4"></path><path d="M110 155.4L50 266.1L145 262.1Z" fill="#9aa4ab" stroke="#9aa4ab"></path><path d="M278 539.3L362 600L334 511.3Z" fill="#929ca4" stroke="#929ca4"></path><path d="M623 432.6L676 400.6L641 379.9Z" fill="#e3e9eb" stroke="#e3e9eb"></path><path d="M644 537.3L676 400.6L623 432.6Z" fill="#d2d9dc" stroke="#d2d9dc"></path><path d="M134 112.7L76 130.7L110 155.4Z" fill="#a9b3b9" stroke="#a9b3b9"></path><path d="M110 155.4L0 236.1L50 266.1Z" fill="#a1abb2" stroke="#a1abb2"></path><path d="M96 0L76 130.7L134 112.7Z" fill="#e3e9eb" stroke="#e3e9eb"></path><path d="M154 431.6L187 548.3L278 539.3Z" fill="#b1bac0" stroke="#b1bac0"></path><path d="M278 539.3L269 600L362 600Z" fill="#d2d9dc" stroke="#d2d9dc"></path><path d="M65 518.3L187 548.3L154 431.6Z" fill="#a9b3b9" stroke="#a9b3b9"></path><path d="M65 518.3L154 431.6L128 393.6Z" fill="#a1abb2" stroke="#a1abb2"></path><path d="M362 600L443 600L411 523.3Z" fill="#e3e9eb" stroke="#e3e9eb"></path><path d="M676 400.6L709 312.9L641 379.9Z" fill="#c1cace" stroke="#c1cace"></path><path d="M682 280.1L739 197.4L633 232.1Z" fill="#9aa4ab" stroke="#9aa4ab"></path><path d="M187 548.3L269 600L278 539.3Z" fill="#dae1e4" stroke="#dae1e4"></path><path d="M292 0L166 0L240 148.4Z" fill="#b9c2c7" stroke="#b9c2c7"></path><path d="M443 600L525 600L411 523.3Z" fill="#929ca4" stroke="#929ca4"></path><path d="M565 515.3L644 537.3L575 459.6Z" fill="#929ca4" stroke="#929ca4"></path><path d="M709 312.9L739 197.4L682 280.1Z" fill="#b1bac0" stroke="#b1bac0"></path><path d="M646 600L644 537.3L565 515.3Z" fill="#dae1e4" stroke="#dae1e4"></path><path d="M793 381.9L800 211.1L709 312.9Z" fill="#b9c2c7" stroke="#b9c2c7"></path><path d="M0 159.4L0 236.1L110 155.4Z" fill="#9aa4ab" stroke="#9aa4ab"></path><path d="M50 266.1L0 316.9L126 324.9Z" fill="#c9d1d5" stroke="#c9d1d5"></path><path d="M0 159.4L110 155.4L76 130.7Z" fill="#b1bac0" stroke="#b1bac0"></path><path d="M0 236.1L0 316.9L50 266.1Z" fill="#b1bac0" stroke="#b1bac0"></path><path d="M739 197.4L699 79.7L636 149.4Z" fill="#b9c2c7" stroke="#b9c2c7"></path><path d="M645 106.7L673 0L508 52.7Z" fill="#c1cace" stroke="#c1cace"></path><path d="M166 0L96 0L134 112.7Z" fill="#d2d9dc" stroke="#d2d9dc"></path><path d="M0 62.7L0 159.4L76 130.7Z" fill="#a1abb2" stroke="#a1abb2"></path><path d="M0 451.6L65 518.3L128 393.6Z" fill="#e3e9eb" stroke="#e3e9eb"></path><path d="M187 548.3L143 600L269 600Z" fill="#c9d1d5" stroke="#c9d1d5"></path><path d="M65 518.3L143 600L187 548.3Z" fill="#a1abb2" stroke="#a1abb2"></path><path d="M699 79.7L673 0L645 106.7Z" fill="#929ca4" stroke="#929ca4"></path><path d="M713 0L673 0L699 79.7Z" fill="#a1abb2" stroke="#a1abb2"></path><path d="M0 316.9L0 451.6L128 393.6Z" fill="#d2d9dc" stroke="#d2d9dc"></path><path d="M65 518.3L68 600L143 600Z" fill="#929ca4" stroke="#929ca4"></path><path d="M800 211.1L771 147.4L739 197.4Z" fill="#b9c2c7" stroke="#b9c2c7"></path><path d="M739 197.4L771 147.4L699 79.7Z" fill="#929ca4" stroke="#929ca4"></path><path d="M800 211.1L739 197.4L709 312.9Z" fill="#b1bac0" stroke="#b1bac0"></path><path d="M525 600L646 600L565 515.3Z" fill="#929ca4" stroke="#929ca4"></path><path d="M804 417.6L793 381.9L676 400.6Z" fill="#b9c2c7" stroke="#b9c2c7"></path><path d="M793 381.9L709 312.9L676 400.6Z" fill="#9aa4ab" stroke="#9aa4ab"></path><path d="M96 0L0 62.7L76 130.7Z" fill="#a9b3b9" stroke="#a9b3b9"></path><path d="M732 536.3L676 400.6L644 537.3Z" fill="#d2d9dc" stroke="#d2d9dc"></path><path d="M825 63.7L713 0L699 79.7Z" fill="#c9d1d5" stroke="#c9d1d5"></path><path d="M825 63.7L699 79.7L771 147.4Z" fill="#b9c2c7" stroke="#b9c2c7"></path><path d="M680 600L732 536.3L644 537.3Z" fill="#b1bac0" stroke="#b1bac0"></path><path d="M646 600L680 600L644 537.3Z" fill="#929ca4" stroke="#929ca4"></path><path d="M0 540.3L68 600L65 518.3Z" fill="#d2d9dc" stroke="#d2d9dc"></path><path d="M732 536.3L804 417.6L676 400.6Z" fill="#dae1e4" stroke="#dae1e4"></path><path d="M793 381.9L900 295.1L800 211.1Z" fill="#c1cace" stroke="#c1cace"></path><path d="M0 451.6L0 540.3L65 518.3Z" fill="#c9d1d5" stroke="#c9d1d5"></path><path d="M96 0L0 0L0 62.7Z" fill="#a1abb2" stroke="#a1abb2"></path><path d="M900 164.4L771 147.4L800 211.1Z" fill="#a1abb2" stroke="#a1abb2"></path><path d="M900 131.7L825 63.7L771 147.4Z" fill="#b9c2c7" stroke="#b9c2c7"></path><path d="M0 540.3L0 600L68 600Z" fill="#dae1e4" stroke="#dae1e4"></path><path d="M900 360.9L793 381.9L804 417.6Z" fill="#e3e9eb" stroke="#e3e9eb"></path><path d="M900 360.9L900 295.1L793 381.9Z" fill="#b9c2c7" stroke="#b9c2c7"></path><path d="M732 536.3L832 537.3L804 417.6Z" fill="#e3e9eb" stroke="#e3e9eb"></path><path d="M834 600L832 537.3L732 536.3Z" fill="#9aa4ab" stroke="#9aa4ab"></path><path d="M900 459.6L900 360.9L804 417.6Z" fill="#e3e9eb" stroke="#e3e9eb"></path><path d="M900 295.1L900 164.4L800 211.1Z" fill="#c9d1d5" stroke="#c9d1d5"></path><path d="M900 0L842 0L825 63.7Z" fill="#dae1e4" stroke="#dae1e4"></path><path d="M825 63.7L842 0L713 0Z" fill="#9aa4ab" stroke="#9aa4ab"></path><path d="M900 164.4L900 131.7L771 147.4Z" fill="#c1cace" stroke="#c1cace"></path><path d="M832 537.3L900 459.6L804 417.6Z" fill="#b1bac0" stroke="#b1bac0"></path><path d="M680 600L834 600L732 536.3Z" fill="#c9d1d5" stroke="#c9d1d5"></path><path d="M832 537.3L900 510.3L900 459.6Z" fill="#d2d9dc" stroke="#d2d9dc"></path><path d="M900 600L900 510.3L832 537.3Z" fill="#c9d1d5" stroke="#c9d1d5"></path><path d="M900 131.7L900 0L825 63.7Z" fill="#dae1e4" stroke="#dae1e4"></path><path d="M834 600L900 600L832 537.3Z" fill="#d2d9dc" stroke="#d2d9dc"></path></g></svg>
